<svg width="24" height="24" viewBox="0 0 24 24" fill="none" xmlns="http://www.w3.org/2000/svg">
    <path d="M3 10.4351H21M17 2.81006V5.81006M7 2.81006V5.81006M7.375 13.9501H8.403M15.597 13.9501H16.625M11.486 13.9501H12.514M7.375 17.0341H8.403M15.597 17.0341H16.625M11.486 17.0341H12.514M17 4.43506H7C5.93913 4.43506 4.92172 4.85649 4.17157 5.60663C3.42143 6.35678 3 7.37419 3 8.43506V17.1851C3 18.2459 3.42143 19.2633 4.17157 20.0135C4.92172 20.7636 5.93913 21.1851 7 21.1851H17C18.0609 21.1851 19.0783 20.7636 19.8284 20.0135C20.5786 19.2633 21 18.2459 21 17.1851V8.43506C21 7.37419 20.5786 6.35678 19.8284 5.60663C19.0783 4.85649 18.0609 4.43506 17 4.43506Z" stroke="#53575A" stroke-width="2" stroke-linecap="round" stroke-linejoin="round"/>
</svg>
    